<svg width="22" height="21" viewBox="0 0 22 21" fill="none" xmlns="http://www.w3.org/2000/svg">
<path d="M10.2367 1.19983C10.5192 0.520622 11.4814 0.520632 11.7639 1.19984L14.0875 6.78643C14.2066 7.07277 14.4759 7.26841 14.785 7.2932L20.8162 7.77671C21.5495 7.8355 21.8468 8.75058 21.2881 9.22911L16.693 13.1654C16.4575 13.3671 16.3546 13.6837 16.4266 13.9853L17.8305 19.8707C18.0012 20.5863 17.2227 21.1518 16.595 20.7684L11.4314 17.6145C11.1668 17.4529 10.8339 17.4529 10.5693 17.6145L5.4057 20.7684C4.77793 21.1518 3.99951 20.5863 4.17019 19.8707L5.57408 13.9853C5.64604 13.6837 5.54318 13.3671 5.30766 13.1654L0.712523 9.22911C0.153853 8.75058 0.451183 7.8355 1.18445 7.77671L7.21565 7.2932C7.52477 7.26841 7.79405 7.07277 7.91315 6.78643L10.2367 1.19983Z" fill="url(#paint0_linear_269_131783)"/>
<defs>
<linearGradient id="paint0_linear_269_131783" x1="0.422363" y1="0.69043" x2="21.5783" y2="0.69043" gradientUnits="userSpaceOnUse">
<stop offset="0.4999" stop-color="#868B90"/>
<stop offset="0.5" stop-color="#868B90"/>
<stop offset="0.76" stop-color="#868B90"/>
</linearGradient>
</defs>
</svg>
