<svg width="22" height="21" viewBox="0 0 22 21" fill="none" xmlns="http://www.w3.org/2000/svg">
<path d="M10.2367 1.20081C10.5192 0.521599 11.4814 0.521609 11.7639 1.20082L14.0875 6.78741C14.2066 7.07375 14.4759 7.26939 14.785 7.29418L20.8162 7.77769C21.5495 7.83648 21.8468 8.75156 21.2881 9.23009L16.693 13.1664C16.4575 13.3681 16.3546 13.6847 16.4266 13.9863L17.8305 19.8717C18.0012 20.5873 17.2227 21.1528 16.595 20.7694L11.4314 17.6155C11.1668 17.4539 10.8339 17.4539 10.5693 17.6155L5.4057 20.7694C4.77793 21.1528 3.99951 20.5873 4.17019 19.8717L5.57408 13.9863C5.64604 13.6847 5.54318 13.3681 5.30766 13.1664L0.712523 9.23009C0.153853 8.75156 0.451183 7.83648 1.18445 7.77769L7.21565 7.29418C7.52477 7.26939 7.79405 7.07375 7.91315 6.78741L10.2367 1.20081Z" fill="url(#paint0_linear_269_131775)"/>
<defs>
<linearGradient id="paint0_linear_269_131775" x1="0.422363" y1="0.691406" x2="21.5783" y2="0.691406" gradientUnits="userSpaceOnUse">
<stop offset="0.4999" stop-color="#F3C63F"/>
<stop offset="0.5" stop-color="#F3C63F"/>
</linearGradient>
</defs>
</svg>
